<?xml version="1.0" standalone="no"?>
<!DOCTYPE svg PUBLIC "-//W3C//DTD SVG 1.1//EN" "http://www.w3.org/Graphics/SVG/1.1/DTD/svg11.dtd" >
<svg xmlns="http://www.w3.org/2000/svg">
<metadata>Generated by IcoMoon</metadata>
<defs>
<font id="icomoon" horiz-adv-x="1024">
<font-face units-per-em="1024" ascent="960" descent="-64" />
<missing-glyph horiz-adv-x="1024" />
<glyph unicode="&#x20;" d="" horiz-adv-x="512" />
<glyph unicode="&#xe600;" d="M866.722 682.633c0-55.346-44.867-100.213-100.213-100.213s-100.213 44.867-100.213 100.213c0 55.346 44.867 100.213 100.213 100.213 55.346 0 100.213-44.867 100.213-100.213zM350.865 403.347c0-55.346-44.867-100.213-100.213-100.213s-100.213 44.867-100.213 100.213c0 55.346 44.867 100.213 100.213 100.213 55.346 0 100.213-44.867 100.213-100.213zM866.722 127.351c0-55.346-44.867-100.213-100.213-100.213s-100.213 44.867-100.213 100.213c0 55.346 44.867 100.213 100.213 100.213 55.346 0 100.213-44.867 100.213-100.213zM756.849 109.292l-515.856 275.999 19.321 36.116 515.858-275.999-19.323-36.116zM260.403 385.337l-19.501 36.020 515.858 279.286 19.499-36.020-515.856-279.286z" />
<glyph unicode="&#xe601;" d="M186.141 14.889c-7.186 0-13.087 2.161-17.533 6.423-3.643 3.492-11.278 13.4-3.484 29.923 1.946 4.127 4.882 8.95 9.239 15.186 7.133 10.207 17.193 22.899 27.841 36.336 10.701 13.5 21.764 27.462 30.468 39.668 18.352 25.729 25.709 49.75 26.784 59.857-101.206 56.648-159.082 141.328-159.082 233.234 0 80.947 44.845 156.522 126.278 212.802 79.122 54.684 183.949 84.797 295.17 84.797s216.050-30.116 295.172-84.797c81.433-56.279 126.278-131.852 126.278-212.802s-44.845-156.522-126.278-212.799c-79.122-54.682-183.949-84.797-295.172-84.797-10.729 0-46.545 0.289-69.308 3.897-6.238-2.421-21.457-13.654-33.829-22.786-19.507-14.397-43.784-32.317-72.178-48.050-43.51-24.111-134.935-56.089-160.365-56.091v0zM521.82 692.154c-102.984 0-199.539-27.535-271.882-77.533-70.035-48.402-108.605-112.009-108.605-179.106 0-78.25 52.431-151.378 143.847-200.632 7.133-3.844 12.184-10.791 14.223-19.56 5.745-24.693-12.446-67.328-33.382-96.684-9.308-13.050-20.699-27.425-31.715-41.325-2.9-3.66-6.048-7.633-9.204-11.653 31.863 10.099 74.928 26.393 101.552 41.146 26.063 14.44 49.152 31.484 67.705 45.179 26.196 19.335 42.007 31.007 57.758 31.007 1.747 0 3.48-0.147 5.151-0.444 12.628-2.23 37.964-3.67 64.553-3.67 102.984 0 199.541 27.535 271.884 77.533 70.035 48.402 108.605 112.009 108.605 179.104 0 67.095-38.57 130.701-108.605 179.106-72.344 49.998-168.901 77.533-271.884 77.533v0z" />
<glyph unicode="&#xe602;" d="M444.363 227.969c-120.457 0-218.456 98.001-218.456 218.458 0 120.455 97.999 218.454 218.456 218.454s218.458-97.999 218.458-218.454c0-120.457-98.001-218.458-218.458-218.458v0zM444.363 623.921c-97.872 0-177.496-79.624-177.496-177.494 0-97.872 79.624-177.498 177.496-177.498s177.498 79.626 177.498 177.498c0 97.872-79.626 177.494-177.498 177.494v0zM840.667-16.894c-19.847 0-38.511 7.729-52.546 21.764-42.793 42.66-133.548 133.175-163.695 163.566-54.493-36.078-117.688-55.085-183.54-55.085-183.658 0-333.074 149.418-333.074 333.079 0 183.656 149.416 333.072 333.074 333.072s333.074-149.416 333.074-333.072c0-60.293-16.155-118.962-46.819-170.381l166.081-166.076c28.969-28.973 28.969-76.12 0.002-105.095-14.045-14.043-32.707-21.77-52.558-21.77v0zM645.2 205.681c5.97-6.316 105.857-106.023 171.864-171.823 6.32-6.322 14.696-9.789 23.603-9.789 8.913 0 17.289 3.469 23.595 9.771 12.999 13.005 12.999 34.167-0.004 47.172l-175.6 175.596-0.999 1.409c-7.813 11.014-6.146 23.595-0.295 31.554 29.858 46.817 45.638 101.038 45.638 156.86 0 161.071-131.041 292.112-292.114 292.112s-292.112-131.041-292.112-292.114c0-161.073 131.041-292.119 292.114-292.119 61.006 0 119.396 18.588 168.933 53.77 3.123 2.585 8.882 6.197 16.634 6.197 7.15 0.002 13.793-3.049 18.743-8.595v0z" />
<glyph unicode="&#xe603;" d="M228.205 402.745c-34.183 34.181-53.008 79.63-53.008 127.971 0 99.791 81.187 180.978 180.978 180.978s180.978-81.187 180.978-180.978c0-45.91-17.218-89.688-48.48-123.279l-29.983 27.908c24.185 25.983 37.503 59.853 37.503 95.371 0 77.206-62.812 140.018-140.018 140.018s-140.018-62.81-140.018-140.018c0-37.401 14.565-72.563 41.011-99.006l-28.963-28.965zM569.393 48.642h-420.954c-54.618 0-91.879 18.76-110.748 55.759-15.448 30.29-15.444 67.432-15.438 97.276v1.585c0 38.693 27.322 99.113 50.721 139.098 25.375 43.364 63.705 95.031 102.396 95.347 1.968 0.053 11.418 0.246 47 0.246l0.246-0.002 28.658-0.344 5.896-5.896c26.444-26.446 61.604-41.009 99.006-41.009 37.509 0 72.745 14.637 99.211 41.218l6.003 6.027 73.296 0.006c38.74 0 79.098-52.234 106.129-96.053 25.184-40.821 54.591-102.142 54.591-140.622 0-31.396-1.35-67.414-17.48-97.52-19.593-36.573-56.109-55.116-108.534-55.116v0zM222.243 396.993c-38.132 0-45.531-0.221-45.828-0.231l-0.692-0.012c-9.073 0-35.391-20.382-67.398-75.076-26.141-44.671-45.111-94.47-45.111-118.409v-1.593c-0.004-26.782-0.008-57.137 10.965-78.66 7.313-14.34 22.968-33.407 74.26-33.407h420.954c48.835 0 64.725 19.116 72.428 33.495 11.649 21.746 12.624 51.755 12.624 78.178 0 23.476-20.394 73.572-48.493 119.116-32.594 52.834-61.299 76.599-71.27 76.599l-56.566-0.002c-33.407-30.536-76.376-47.249-121.944-47.249-45.484 0-88.406 16.667-121.79 47.106l-12.138 0.145zM619.948 416.377c-28.436 28.432-44.095 66.236-44.095 106.453 0 83.012 67.535 150.546 150.544 150.546 83.014 0 150.551-67.535 150.551-150.546 0-38.185-14.322-74.605-40.327-102.55l-29.985 27.904c18.928 20.341 29.352 46.848 29.352 74.646 0 60.426-49.162 109.586-109.591 109.586-60.424 0-109.584-49.16-109.584-109.586 0-29.274 11.397-56.793 32.096-77.488l-28.961-28.965zM899.191 128.274h-227.777v40.96h227.777c54.985 0 65.044 29.17 65.044 86.616 0 15.505-13.038 52.519-37.956 93.252-27.533 45.013-49.488 61.063-55.276 61.477l-44.282-0.004c-27.628-24.756-62.927-38.291-100.323-38.291-37.337 0-72.6 13.5-100.213 38.193l-8.346 0.1c-30.691 0-36.751-0.178-36.995-0.186l-0.684-0.012c-0.004-0.002-5.333-0.639-16.288-11.42l-28.731 29.196c15.727 15.475 30.341 23.060 44.669 23.181 1.769 0.047 9.685 0.201 38.152 0.201h0.246l24.805-0.299 5.896-5.898c20.695-20.697 48.214-32.096 77.486-32.096 29.358 0 56.934 11.459 77.652 32.262l6.003 6.025 61.012 0.006c33.186 0 66.886-43.334 89.311-79.686 20.677-33.513 44.82-84.003 44.82-116.001-0.002-38.177-0.002-127.576-106.004-127.576v0z" />
<glyph unicode="&#xe604;" d="M943.839 281.735c-12.134 0-24.113 4.545-33.731 12.794l-399.315 342.487-399.311-342.489c-9.615-8.247-21.594-12.792-33.729-12.792 0 0-0.002 0-0.002 0-14.223 0-27.308 6.248-35.899 17.142l-19.825 25.147c-16.044 20.341-11.956 51.593 9.118 69.665l445.649 381.286c3.162 2.785 17.416 14.457 34.001 14.457 15.52 0 30.657-10.275 34.927-13.425l1.083-0.858 153.364-129.966v109.871c0 26.618 21.139 48.273 47.127 48.273h79.944c25.985 0 47.129-21.656 47.129-48.273v-261.55l116.101-99.832c21.051-18.055 25.137-49.31 9.089-69.652l-19.816-25.139c-8.593-10.897-21.676-17.146-35.903-17.146v0zM526.746 677.298l410.032-351.678c2.167-1.86 4.739-2.925 7.062-2.925 1.669 0 2.929 0.518 3.736 1.544l19.821 25.143c2.251 2.851 1.18 9.103-3.613 13.214l-130.294 112.036-0.082 12.773v267.649c0 4.033-2.767 7.313-6.169 7.313h-79.944c-3.4 0-6.167-3.281-6.167-7.313v-150.235l2.787-50.401-222.953 188.942c-3.232 2.251-7.911 4.602-10.080 5.061-1.866-0.516-5.501-2.83-7.008-4.176l-0.322-0.281-445.762-381.383c-4.776-4.094-5.845-10.349-3.598-13.193l19.825-25.149c0.807-1.022 2.064-1.542 3.738-1.542v0c2.32 0 4.895 1.065 7.059 2.922l410.044 351.691c4.18 3.803 9.845 5.941 15.938 5.941 6.103 0 11.77-2.142 15.95-5.954v0zM827.24 9.728h-261.421v253.62h-112.267v-253.62h-259.201c-25.985 0-47.127 21.656-47.127 48.273v318.603l363.571 312.936 363.571-312.938v-318.601c0.002-26.618-21.142-48.273-47.127-48.273v0zM606.779 50.688h220.459c3.4 0 6.169 3.283 6.169 7.313v299.815l-322.611 277.682-322.611-277.682v-299.815c0-4.033 2.767-7.313 6.167-7.313h218.241v253.62h194.187v-253.62z" />
<glyph unicode="&#xe605;" d="M424 52l-372.571 372q-21.143 21.143-21.143 51.714t21.143 51.714l372.571 372q21.143 21.143 51.714 21.143t51.714-21.143l42.857-42.857q21.143-21.143 21.143-51.714t-21.143-51.714l-277.714-277.714 277.714-277.143q21.143-21.714 21.143-52t-21.143-51.429l-42.857-42.857q-21.143-21.143-51.714-21.143t-51.714 21.143z" horiz-adv-x="658" />
<glyph unicode="&#xe606;" d="M292 633.143h146.857l-17.143-162.286h-129.714v-470.857h-194.857v470.857h-97.143v162.286h97.143v97.714q0 104 49.143 157.429t161.714 53.429h129.714v-162.286h-81.143q-22.286 0-35.714-3.714t-19.429-13.429-7.714-19.714-1.714-28.286v-81.143z" horiz-adv-x="439" />
<glyph unicode="&#xe607;" d="M925.714 717.714q-38.286-56-92.571-95.429 0.571-8 0.571-24 0-74.286-21.714-148.286t-66-142-105.429-120.286-147.429-83.429-184.571-31.143q-154.857 0-283.429 82.857 20-2.286 44.571-2.286 128.571 0 229.143 78.857-60 1.143-107.429 36.857t-65.143 91.143q18.857-2.857 34.857-2.857 24.571 0 48.571 6.286-64 13.143-106 63.714t-42 117.429v2.286q38.857-21.714 83.429-23.429-37.714 25.143-60 65.714t-22.286 88q0 50.286 25.143 93.143 69.143-85.143 168.286-136.286t212.286-56.857q-4.571 21.714-4.571 42.286 0 76.571 54 130.571t130.571 54q80 0 134.857-58.286 62.286 12 117.143 44.571-21.143-65.714-81.143-101.714 53.143 5.714 106.286 28.571z" horiz-adv-x="951" />
<glyph unicode="&#xe608;" d="M199.429 593.714v-566.286h-188.571v566.286h188.571zM211.429 768.571q0.571-41.714-28.857-69.714t-77.429-28h-1.143q-46.857 0-75.429 28t-28.571 69.714q0 42.286 29.429 70t76.857 27.714 76-27.714 29.143-70zM877.714 352v-324.571h-188v302.857q0 60-23.143 94t-72.286 34q-36 0-60.286-19.714t-36.286-48.857q-6.286-17.143-6.286-46.286v-316h-188q1.143 228 1.143 369.714t-0.571 169.143l-0.571 27.429h188v-82.286h-1.143q11.429 18.286 23.429 32t32.286 29.714 49.714 24.857 65.429 8.857q97.714 0 157.143-64.857t59.429-190z" horiz-adv-x="878" />
<glyph unicode="&#xe609;" d="M163.863 311.62l-65.819 169.355h80.609l26.624-70.996c3.443-10.85 6.656-21.205 9.613-31.064 2.957-9.865 6.158-19.966 9.613-30.321h2.959c6.898 9.855 13.922 19.968 21.076 30.321 7.141 10.357 14.166 20.709 21.078 31.064l50.291 70.996h85.047l-145.693-187.103 70.257-176.013h-81.349l-27.363 73.953c-3.953 10.84-7.893 21.817-11.831 32.911-3.953 11.092-7.893 21.815-11.833 32.17h-2.959c-6.91-10.355-14.176-20.834-21.815-31.433-7.649-10.607-15.659-21.572-24.035-32.909l-56.947-74.695h-85.787l158.263 193.763zM396.073 205.865c17.75-20.22 38.943-36.235 63.603-48.071 24.648-11.831 51.028-17.75 79.131-17.75 37.462 0 67.045 8.991 88.748 26.995 21.688 17.992 32.539 41.529 32.539 70.625 0 15.276-2.347 28.105-7.025 38.457-4.692 10.355-10.979 19.343-18.86 26.993-7.893 7.637-17.136 14.293-27.732 19.97-10.609 5.663-21.815 11.209-33.651 16.638l-73.955 33.28c-10.85 4.436-22.069 9.855-33.649 16.269-11.59 6.402-22.186 14.422-31.799 24.035-9.615 9.613-17.633 20.949-24.035 34.019-6.412 13.056-9.613 28.713-9.613 46.959 0 17.75 3.57 33.892 10.723 48.441 7.141 14.537 17.011 27.109 29.581 37.718 12.571 10.596 27.605 18.858 45.111 24.775 17.494 5.915 36.356 8.874 56.576 8.874 29.579 0 55.835-5.802 78.762-17.379 22.923-11.59 41.783-25.272 56.574-41.046l-19.227-22.927c-14.307 15.276-31.064 27.478-50.293 36.608-19.227 9.118-41.171 13.683-65.819 13.683-32.541 0-58.679-7.893-78.391-23.667-19.726-15.786-29.583-36.975-29.583-63.599 0-14.307 2.705-26.38 8.135-36.239 5.421-9.867 12.319-18.373 20.707-25.514 8.38-7.152 17.496-13.31 27.365-18.487 9.855-5.177 19.227-9.74 28.101-13.683l73.953-32.541c13.797-5.915 26.866-12.573 39.199-19.968 12.317-7.393 23.167-16.028 32.539-25.885 9.361-9.867 16.884-21.574 22.557-35.125 5.663-13.57 8.503-29.712 8.503-48.443 0-18.741-3.697-36.121-11.092-52.138-7.393-16.024-17.877-29.833-31.429-41.413-13.57-11.59-29.952-20.709-49.183-27.363-19.231-6.656-40.675-9.984-64.342-9.984-35.498 0-67.056 6.783-94.661 20.339-27.617 13.552-51.030 31.175-70.257 52.875l22.188 23.669zM702.849 182.008h28.195c10.557 0 18.952-2.036 25.184-6.099 6.228-4.065 9.343-10.482 9.343-19.245 0-5.491-1.559-10.271-4.671-14.334-3.115-4.065-7.735-6.889-13.861-8.475v-0.635c7.709-1.161 13.781-3.828 18.217-7.997 4.434-4.172 6.652-9.9 6.652-17.187 0-5.069-0.926-9.503-2.773-13.304-1.847-3.801-4.463-6.969-7.84-9.505-3.379-2.533-7.444-4.434-12.196-5.702-4.751-1.266-10.086-1.901-15.999-1.901h-30.251v104.382zM728.191 136.073c10.77 0 18.477 1.716 23.126 5.149 4.645 3.43 6.967 8.632 6.967 15.602 0 6.756-2.482 11.641-7.444 14.649-4.964 3.011-12.249 4.514-21.858 4.514h-18.848v-39.913h18.057zM731.202 83.646c10.453 0 18.661 1.954 24.629 5.861 5.964 3.903 8.948 10.082 8.948 18.53 0 7.498-2.906 13.068-8.712 16.712-5.808 3.641-14.096 5.464-24.867 5.464h-21.066v-46.567h21.068zM794.399 182.008h57.178v-6.337h-49.891v-39.44h41.814v-6.337h-41.814v-45.933h51.476v-6.337h-58.763v104.382zM898.46 175.671h-33.262v6.337h73.81v-6.337h-33.262v-98.044h-7.287v98.044zM999.512 113.424h-41.341l-12.354-35.797h-7.287l36.745 104.38h7.287l36.745-104.38h-7.602l-12.194 35.797zM997.452 119.601l-6.652 19.483c-2.114 6.228-4.119 12.196-6.017 17.897-1.903 5.702-3.75 11.772-5.544 18.215h-0.635c-1.796-6.443-3.643-12.511-5.544-18.215s-3.908-11.67-6.017-17.897l-6.654-19.483h37.063z" />
<glyph unicode="&#xe60a;" d="M244.089 327.094l-92.371 237.672h113.127l37.364-99.633c4.831-15.229 9.341-29.757 13.492-43.592 4.151-13.849 8.645-28.023 13.492-42.551h4.151c9.681 13.832 19.542 28.023 29.579 42.551 10.023 14.531 19.882 29.061 29.579 43.592l70.574 99.633h119.355l-204.46-262.58 98.599-247.013h-114.166l-38.4 103.789c-5.546 15.21-11.076 30.616-16.605 46.184-5.546 15.569-11.076 30.618-16.605 45.148h-4.151c-9.697-14.531-19.898-29.237-30.618-44.11-10.736-14.887-21.973-30.276-33.731-46.184l-79.919-104.829h-120.394l222.106 271.923zM569.969 178.678c24.91-28.377 54.653-50.854 89.258-67.459 34.591-16.605 71.614-24.91 111.053-24.91 52.574 0 94.089 12.616 124.545 37.882 30.437 25.25 45.664 58.284 45.664 99.117 0 21.438-3.291 39.438-9.857 53.969-6.584 14.531-15.405 27.148-26.466 37.882-11.076 10.719-24.050 20.060-38.92 28.025-14.889 7.946-30.618 15.731-47.225 23.351l-103.789 46.705c-15.227 6.226-30.972 13.832-47.223 22.831-16.265 8.985-31.136 20.24-44.628 33.733-13.494 13.492-24.746 29.399-33.731 47.743-9.001 18.323-13.492 40.298-13.492 65.905 0 24.91 5.009 47.563 15.049 67.979 10.023 20.4 23.871 38.046 41.515 52.933 17.641 14.871 38.74 26.464 63.308 34.769 24.551 8.303 51.020 12.456 79.399 12.456 41.515 0 78.359-8.141 110.535-24.39 32.172-16.265 58.64-35.465 79.397-57.602l-26.984-32.174c-20.077 21.438-43.592 38.564-70.576 51.374-26.984 12.796-57.78 19.2-92.371 19.2-45.666 0-82.35-11.076-110.014-33.212-27.683-22.151-41.515-51.892-41.515-89.258 0-20.077 3.797-37.022 11.416-50.856 7.608-13.849 17.287-25.784 29.061-35.805 11.758-10.037 24.551-18.682 38.402-25.946 13.832-7.266 26.984-13.672 39.438-19.202l103.786-45.666c19.364-8.303 37.704-17.644 55.007-28.023 17.287-10.377 32.516-22.491 45.668-36.325 13.134-13.849 23.691-30.276 31.654-49.297 7.946-19.040 11.934-41.693 11.934-67.981 0-26.302-5.188-50.692-15.569-73.171-10.375-22.491-25.086-41.869-44.108-58.12-19.040-16.265-42.033-29.059-69.020-38.402-26.984-9.341-57.082-14.010-90.294-14.010-49.818 0-94.106 9.517-132.846 28.543-38.76 19.022-71.614 43.751-98.601 74.205l31.14 33.21z" />
<glyph unicode="&#xe60b;" d="M572.084 628.687h-484.084c-37.984 0-68.889 30.902-68.889 68.889 0 37.984 30.902 68.889 68.889 68.889h484.084c37.986 0 68.891-30.902 68.891-68.889s-30.904-68.889-68.891-68.889v0zM88.001 725.504c-15.401 0-27.929-12.528-27.929-27.929s12.528-27.929 27.929-27.929h484.084c15.401 0 27.931 12.53 27.931 27.929s-12.53 27.929-27.931 27.929h-484.084zM446.493 439.509h-358.492c-37.984 0-68.889 30.904-68.889 68.891 0 37.984 30.902 68.889 68.889 68.889h468.171v-40.96h-468.171c-15.401 0-27.929-12.528-27.929-27.929 0-15.401 12.528-27.931 27.929-27.931h358.492v-40.96zM390.978 250.329h-302.977c-37.984 0-68.889 30.904-68.889 68.891 0 37.984 30.902 68.889 68.889 68.889h323.801v-40.96h-323.801c-15.401 0-27.929-12.528-27.929-27.929s12.528-27.931 27.929-27.931h302.977v-40.96zM693.615-13.824c-78.143 0-152.846 29.102-210.344 81.945-57.143 52.519-92.42 123.853-99.328 200.86-0.836 9.292-1.257 18.756-1.257 28.125 0 171.448 139.483 310.931 310.931 310.931s310.927-139.483 310.927-310.931-139.481-310.929-310.929-310.929v0zM693.615 567.077c-148.863 0-269.971-121.108-269.971-269.971 0-8.151 0.369-16.382 1.094-24.463 12.558-139.962 128.15-245.506 268.878-245.506 148.863 0 269.969 121.108 269.969 269.969s-121.108 269.971-269.969 269.971v0zM715.776 271.872c0-11.876-9.628-21.504-21.504-21.504v0c-11.876 0-21.504 9.628-21.504 21.504v231.424c0 11.876 9.628 21.504 21.504 21.504v0c11.876 0 21.504-9.628 21.504-21.504v-231.424zM708.43 254.321c-10.422-5.698-23.489-1.868-29.184 8.554v0c-5.695 10.42-1.866 23.486 8.554 29.182l135.674 74.168c10.422 5.698 23.489 1.868 29.184-8.554v0c5.695-10.42 1.866-23.486-8.554-29.182l-135.674-74.168z" />
<glyph unicode="&#xe60c;" d="M515.353 3.584c-222.183 0-402.944 180.761-402.944 402.944s180.759 402.944 402.944 402.944 402.944-180.761 402.944-402.944-180.761-402.944-402.944-402.944v0zM515.353 768.512c-199.598 0-361.984-162.386-361.984-361.984s162.386-361.984 361.984-361.984 361.984 162.386 361.984 361.984c0 199.598-162.386 361.984-361.984 361.984v0zM718.094 203.786c-12.595-12.595-33.020-12.595-45.617 0l-359.866 359.866c-12.595 12.595-12.595 33.020 0 45.617v0c12.597 12.595 33.022 12.595 45.617 0l359.866-359.866c12.595-12.597 12.595-33.022 0-45.617v0zM718.096 609.27c12.595-12.595 12.595-33.020 0-45.617l-359.868-359.866c-12.595-12.595-33.020-12.595-45.617 0v0c-12.595 12.595-12.595 33.020 0 45.615l359.866 359.868c12.599 12.597 33.022 12.597 45.619 0v0z" />
<glyph unicode="&#xe60d;" d="M512 640v-256q0-8-5.143-13.143t-13.143-5.143h-182.857q-8 0-13.143 5.143t-5.143 13.143v36.571q0 8 5.143 13.143t13.143 5.143h128v201.143q0 8 5.143 13.143t13.143 5.143h36.571q8 0 13.143-5.143t5.143-13.143zM749.714 438.857q0 84.571-41.714 156t-113.143 113.143-156 41.714-156-41.714-113.143-113.143-41.714-156 41.714-156 113.143-113.143 156-41.714 156 41.714 113.143 113.143 41.714 156zM877.714 438.857q0-119.429-58.857-220.286t-159.714-159.714-220.286-58.857-220.286 58.857-159.714 159.714-58.857 220.286 58.857 220.286 159.714 159.714 220.286 58.857 220.286-58.857 159.714-159.714 58.857-220.286z" horiz-adv-x="878" />
<glyph unicode="&#xe60e;" d="M512 39.424c-73.161 0-144.951 19.575-207.61 56.609-60.799 35.934-111.548 87.278-146.764 148.482l53.254 30.64c61.856-107.508 177.238-174.291 301.119-174.291 191.412 0 347.136 155.724 347.136 347.136 0 191.41-155.724 347.136-347.136 347.136v61.44c225.29 0 408.576-183.286 408.576-408.576s-183.286-408.576-408.576-408.576v0z" />
<glyph unicode="&#xe60f;" d="M500.571 113.714q0 12-2.571 23.143t-5.429 20.571-10 19.714-12 17.429-15.143 16.857-15.714 14.571-18.286 14.571-17.714 13.143-18.857 13.143-17.429 12q-9.714 1.143-28.571 1.143-30.857 0-60.571-4t-61.714-14.286-56-26.286-39.429-42.857-15.429-61.143q0-38.857 20.286-69.429t53.143-48 68.857-26 72.571-8.571q33.714 0 64.286 7.143t57.429 22.286 42.571 42 15.714 62.857zM432 606.286q0 34.286-9.429 72.857t-26.857 74.571-48 59.429-68.286 23.429q-53.143 0-82.286-39.429t-29.143-94.286q0-26.857 6.571-56.571t20.286-59.429 32-53.429 44.571-38.571 55.429-14.857q55.429 0 80.286 34.571t24.857 91.714zM357.143 877.714h249.714l-77.143-45.143h-77.143q40.571-25.714 62.857-72t22.286-96.571q0-42.286-13.143-75.143t-32-52.857-37.714-36.857-32-34.857-13.143-38.571q0-14.857 9.429-29.143t24.571-27.429 33.429-27.429 36.571-31.714 33.429-37.714 24.571-48.571 9.429-60.857q0-91.429-80-161.143-86.857-74.857-240-74.857-33.714 0-68.286 5.714t-69.714 19.143-62 33.143-44 50.857-17.143 69.429q0 34.857 21.143 77.143 18.286 36.571 54.857 63.143t82.857 40.571 88.571 20.571 85.714 7.714q-36.571 47.429-36.571 85.143 0 6.857 1.143 13.429t2.857 11.143 4.571 12.286 4 12.286q-22.857-2.857-40-2.857-85.143 0-146 56t-60.857 140.571q0 80 54.286 143.143t133.714 80.857q53.714 11.429 106.857 11.429zM950.857 731.428v-73.143h-146.286v-146.286h-73.143v146.286h-146.286v73.143h146.286v146.286h73.143v-146.286h146.286z" horiz-adv-x="951" />
<glyph unicode="&#xe610;" d="M515.353 3.584c-222.183 0-402.944 180.761-402.944 402.944 0 222.183 180.759 402.944 402.944 402.944 222.185 0 402.944-180.761 402.944-402.944 0-222.183-180.761-402.944-402.944-402.944v0zM515.353 768.512c-199.598 0-361.984-162.386-361.984-361.984s162.386-361.984 361.984-361.984 361.984 162.386 361.984 361.984-162.386 361.984-361.984 361.984v0zM802.075 406.526c0-17.809-14.445-32.254-32.256-32.254h-508.928c-17.811 0-32.254 14.442-32.256 32.256v0c0.002 17.814 14.445 32.256 32.256 32.256h508.926c17.816-0.002 32.26-14.447 32.258-32.258v0zM515.355 693.248c17.814 0 32.256-14.442 32.256-32.256v-508.928c0-17.811-14.445-32.254-32.256-32.256v0c-17.811-0.002-32.256 14.442-32.254 32.254l-0.002 508.93c0 17.816 14.442 32.258 32.256 32.256v0z" />
<glyph unicode="&#xe611;" d="M454.558 199.952c-125.848 33.72-200.798 163.539-167.078 289.386 33.722 125.848 163.541 200.798 289.389 167.078 125.848-33.72 200.8-163.541 167.078-289.389-33.72-125.848-163.541-200.798-289.389-167.076v0zM566.266 616.854c-104.032 27.873-211.347-34.085-239.223-138.115s34.083-211.347 138.113-239.221c104.034-27.875 211.347 34.083 239.225 138.113 27.877 104.032-34.081 211.347-138.115 239.223v0zM454.169-8.706l-130.337 34.925c-38.547 10.328-62.401 46.752-53.172 81.195l19.343 72.2c-12.239 11.217-23.661 23.353-34.13 36.274l-67.353-18.047c-9.974-2.671-20.615-2.646-30.775 0.078-24.052 6.443-43.373 26.792-50.422 53.098l-34.92 130.333c-10.33 38.547 9.286 77.418 43.729 86.651l0.012-0.049c0.575 0.19 1.171 0.367 1.792 0.532l68.010 18.221c1.69 9.417 3.785 18.805 6.261 28.045 2.443 9.122 5.284 18.188 8.477 27.075l-50.403 50.403c-0.229 0.231-0.453 0.463-0.668 0.692l-0.012-0.012c-25.209 25.215-22.761 68.688 5.458 96.905l95.408 95.408c19.257 19.259 46.162 27.218 70.216 20.775 10.158-2.724 19.388-8.020 26.69-15.321l-0.055-0.055c1.858-1.745 4.295-4.182 7.774-7.664l41.349-41.347c20.464 7.875 41.613 13.724 63.162 17.463l17.809 66.464c9.228 34.441 48.099 54.059 86.649 43.731l130.333-34.922c38.55-10.33 62.407-46.756 53.176-81.197l-17.5-65.317c16.859-13.832 32.35-29.293 46.246-46.172l63.592 17.039c9.974 2.673 20.615 2.646 30.775-0.078 24.050-6.443 43.373-26.792 50.422-53.098l34.922-130.333c4.846-18.084 3.324-36.864-4.286-52.888-8.024-16.89-22.401-29.194-39.444-33.761l-63.902-17.121c-1.761-10.308-4.014-20.586-6.722-30.693-2.74-10.226-5.972-20.365-9.652-30.284l46.805-46.809c25.215-25.213 22.77-68.684-5.45-96.903l-95.41-95.412c-19.257-19.253-46.164-27.214-70.216-20.773-10.158 2.72-19.388 8.018-26.69 15.317l-46.799 46.797c-25.121-9.38-51.149-15.696-77.691-18.85l-15.753-58.786c-9.232-34.439-48.103-54.057-86.649-43.729v0zM271.843 262.56l8.296-11.158c13.464-18.104 28.994-34.654 46.16-49.189l9.904-8.385-25.981-97.020c-3.328-12.411 7.762-26.62 24.209-31.027l130.337-34.925c16.45-4.407 33.153 2.355 36.481 14.768l23.208 86.54 14.483 1.081c31.767 2.372 62.831 9.871 92.326 22.288l12.687 5.339 66.060-66.048c2.257-2.253 5.059-3.84 8.327-4.719 9.812-2.628 21.848 1.364 30.654 10.174l95.412 95.41c12.040 12.040 14.537 29.893 5.45 38.978l-66.009 66.038 5.302 12.665c5.13 12.253 9.486 25.025 12.952 37.954 3.437 12.825 6.031 25.952 7.717 39.016l1.753 13.605 90.116 24.16c7.432 1.993 11.366 8.235 13.050 11.776 3.387 7.133 4.014 16.138 1.718 24.707l-34.922 130.333c-3.224 12.034-11.649 21.506-21.459 24.136-3.271 0.877-6.492 0.903-9.574 0.078l-89.934-24.087-8.315 10.99c-16.534 21.854-35.971 41.261-57.778 57.68l-11.031 8.305 24.549 91.728c3.328 12.415-7.76 26.624-24.209 31.033l-130.335 34.922c-16.45 4.407-33.155-2.355-36.481-14.768l-24.828-92.609-13.564-1.782c-27.351-3.596-54.090-11.031-79.477-22.102l-13.523-5.898-18.164 20.152c-3.736 3.738-34.216 34.218-45.132 45.134l-3.793 3.793c-0.041 0.037-0.063 0.063-0.076 0.072l-0.014 0.016c-2.255 2.255-5.059 3.842-8.327 4.719-9.814 2.63-21.844-1.364-30.652-10.172l-95.406-95.408c-12.042-12.042-14.541-29.895-5.454-38.982l0.805-0.805c7.127-7.127 59.671-59.668 59.671-59.668l9.589-9.589-6.023-14.893c-4.182-10.539-7.844-21.604-10.834-32.764-3.222-12.026-5.71-24.33-7.391-36.573l-1.853-13.47-30.64-8.217c-21.076-5.648-54.692-14.653-63.154-16.921l-1.917-0.514c-0.031-0.008-0.049-0.014-0.059-0.018l-0.020-0.004c-12.413-3.326-19.175-20.034-14.766-36.483l34.922-130.333c3.224-12.034 11.647-21.508 21.457-24.136 3.271-0.879 6.492-0.901 9.572-0.078l0.004-0.014c0.301 0.092 0.608 0.18 0.924 0.264l93 24.902z" />
<glyph unicode="&#xe612;" d="M516.164-7.68c-11.457 0-20.476 8.114-33.114 23.087-9.091 10.772-20.681 26.214-33.516 44.661-28.588 41.087-60.275 92.277-89.219 144.134-46.225 82.817-123.701 236.64-124.062 337.633l-0.272 4.792c0 155.095 125.604 281.276 279.99 281.276 154.292 0 279.837-126.013 279.99-280.979l0.117-4.393c0-102.097-77.734-256.289-124.072-339.114-28.912-51.679-60.602-102.703-89.233-143.671-12.829-18.356-24.422-33.731-33.524-44.46-12.636-14.895-21.654-22.966-33.085-22.966v0zM276.941 547.293l0.27-4.762c0-65.466 39.672-173.933 111.704-305.412 52.32-95.504 105.066-171.958 127.281-197.638 22.264 25.602 75.024 101.773 127.224 196.858 71.926 131.015 111.581 239.63 111.694 305.91l-0.117 4.379c0 132.512-107.227 240.316-239.030 240.316-131.582 0-238.674-107.44-239.026-239.651v0zM512 471.552c-60.228 0-109.226 48.998-109.226 109.226s48.998 109.226 109.226 109.226 109.228-48.998 109.228-109.226-49-109.226-109.228-109.226v0zM512 649.046c-37.642 0-68.266-30.624-68.266-68.266s30.624-68.268 68.266-68.268c37.644 0 68.268 30.624 68.268 68.266s-30.624 68.268-68.268 68.268v0z" />
<glyph unicode="&#xe613;" d="M334.127 597.424c-36.7 0-66.56 29.86-66.56 66.56v101.173c0 36.702 29.86 66.56 66.56 66.56s66.56-29.86 66.56-66.56v-101.173c-0.002-36.7-29.86-66.56-66.56-66.56v0zM334.127 799.773c-19.087 0-34.615-15.528-34.615-34.615v-101.173c0-19.087 15.528-34.613 34.615-34.613 19.085 0 34.613 15.528 34.613 34.613v101.173c0 19.089-15.528 34.615-34.613 34.615v0zM694.764 585.47c-36.702 0-66.56 29.86-66.56 66.56v101.173c0 36.7 29.858 66.56 66.56 66.56 36.7 0 66.56-29.858 66.56-66.56v-101.173c0-36.7-29.86-66.56-66.56-66.56v0zM694.764 787.816c-19.085 0-34.615-15.528-34.615-34.613v-101.173c0-19.087 15.53-34.613 34.615-34.613 19.083 0 34.611 15.528 34.611 34.613v101.173c0.004 19.085-15.524 34.613-34.611 34.613v0zM850.944 37.376h-673.792c-39.524 0-71.68 32.156-71.68 71.68v538.624c0 39.524 32.156 71.68 71.68 71.68h92.115v-40.96h-92.115c-16.939 0-30.72-13.781-30.72-30.72v-538.624c0-16.939 13.781-30.72 30.72-30.72h673.792c16.939 0 30.72 13.781 30.72 30.72v538.624c0 16.939-13.781 30.72-30.72 30.72h-91.32v40.96h91.32c39.524 0 71.68-32.156 71.68-71.68v-538.624c0-39.524-32.156-71.68-71.68-71.68v0zM629.901 678.4h-230.916v40.96h230.916zM305.281 234.723c9.996-10.342 21.631-19.483 34.908-27.408 13.269-7.936 29.737-11.897 49.39-11.897 19.991 0 36.37 5.431 49.129 16.292 12.751 10.861 19.134 25.598 19.134 44.216 0 9.648-1.81 18.53-5.429 26.634-3.621 8.096-9.568 15.077-17.842 20.947-8.276 5.857-19.134 10.342-32.582 13.445-13.447 3.103-29.995 4.653-49.648 4.653v32.58c17.584 0 32.324 1.552 44.216 4.655 11.895 3.103 21.543 7.41 28.961 12.927 7.41 5.511 12.671 12.065 15.774 19.653 3.103 7.58 4.653 15.684 4.653 24.306 0 16.202-5.091 28.963-15.256 38.271-10.174 9.31-24.048 13.963-41.632 13.963-13.793 0-26.464-3.105-38.013-9.31-11.555-6.205-22.325-14.309-32.322-24.306l-22.755 26.892c12.751 12.065 26.802 21.979 42.148 29.739 15.337 7.756 32.84 11.637 52.492 11.637 14.479 0 27.748-1.901 39.821-5.689 12.065-3.797 22.497-9.228 31.287-16.29 8.792-7.070 15.596-15.774 20.429-26.116 4.823-10.344 7.24-22.237 7.24-35.684 0-20.001-5.519-36.381-16.55-49.129-11.039-12.759-25.518-22.585-43.44-29.479v-2.071c9.996-2.417 19.304-5.945 27.927-10.6 8.614-4.655 16.202-10.523 22.755-17.584 6.545-7.070 11.637-15.256 15.256-24.566 3.621-9.308 5.429-19.653 5.429-31.027 0-14.481-2.845-27.589-8.534-39.305-5.689-11.725-13.445-21.637-23.271-29.737-9.826-8.104-21.293-14.309-34.39-18.618-13.107-4.307-27.24-6.463-42.408-6.463-13.107 0-25.084 1.292-35.942 3.879s-20.775 6.027-29.737 10.344c-8.968 4.307-16.984 9.22-24.048 14.737-7.070 5.511-13.365 11.379-18.876 17.584l21.725 27.927zM567.996 201.626h75.504v243.067h-59.992v27.408c15.167 2.757 28.357 6.117 39.563 10.086 11.201 3.961 21.285 8.702 30.253 14.221h32.582v-294.783h68.264v-35.166h-186.175v35.166z" />
<glyph unicode="&#xe614;" d="M911.219 122.368h-796.389c-23.558 0-42.725 19.165-42.725 42.723v471.607c0 23.558 19.165 42.725 42.725 42.725h796.389c23.56 0 42.725-19.165 42.725-42.725v-471.607c0-23.558-19.165-42.723-42.725-42.723v0zM114.829 638.464c-0.973 0-1.765-0.793-1.765-1.765v-471.607c0-0.973 0.793-1.763 1.765-1.763h796.389c0.975 0 1.765 0.793 1.765 1.763v471.607c0 0.973-0.793 1.765-1.765 1.765h-796.389zM511.371 303.548c-10.963 0-21.932 3.502-30.679 10.5l-384.823 307.857 25.588 31.984 384.823-307.857c2.37-1.896 7.748-1.919 10.097-0.041l384.465 307.573 25.588-31.984-384.467-307.575c-8.718-6.971-19.653-10.457-30.591-10.457v0z" />
<glyph unicode="&#xe615;" d="M880.806 44.378h-727.001c-22.585 0-40.96 18.375-40.96 40.96v468.965c0 22.585 18.375 40.96 40.96 40.96h727.001c22.585 0 40.96-18.375 40.96-40.96v-468.965c0-22.585-18.375-40.96-40.96-40.96v0zM153.805 554.303v-468.965h727.001c0.016 0 0.025 0.002 0.025 0.002l-0.025 468.963h-727.001zM626.866 554.303h-229.362c-22.585 0-40.96 16.353-40.96 36.454v87.853c0 20.101 18.375 36.454 40.96 36.454h229.362c22.585 0 40.96-16.353 40.96-36.454v-87.853c0-20.101-18.375-36.454-40.96-36.454v0zM397.505 595.263h229.362v78.842h-229.362v-78.842zM279.751 114.008h-40.96v411.625h40.96v-411.625zM801.964 114.008h-40.96v411.625h40.96v-411.625z" />
<glyph unicode="&#xe616;" d="M893.952 20.992h-768c-22.585 0-40.96 18.375-40.96 40.96v324.078l2.136 43.631 41.007 390.144c2.286 21.766 21.174 38.82 43.002 38.82h130.312c21.797 0 40.704-17.029 43.043-38.769l40.847-380.178 217.631 97.296c7.217 3.228 14.303 4.864 21.060 4.864 9.253 0 17.56-3.228 23.394-9.089 5.491-5.515 8.493-13.033 8.456-21.17l-0.332-74.203 228.157 99.672c7.057 3.158 14.143 4.792 20.9 4.792 9.253 0 17.56-3.228 23.394-9.089 5.491-5.515 8.493-13.033 8.456-21.17l-1.544-126.167v-323.461c0-22.585-18.375-40.96-40.96-40.96v0zM125.952 385.042v-323.090h768c0.016 0 0.025 0 0.025 0l-0.025 323.711 0.002 0.125 1.366 111.632-281.012-122.763 0.549 122.763-260.143-116.304-9.030 44.216-41.918 390.144c-0.104 0.965-1.526 2.187-2.316 2.187h-130.312c-0.774 0-2.165-1.194-2.263-2.138l-40.95-389.573-1.972-40.911z" />
<glyph unicode="&#xe617;" d="M596.001 26.227c-40.739 0-74.959 0.367-101.71 1.090-50.971 1.378-87.773 16.345-120.244 29.553-28.414 11.557-52.951 21.535-83.411 21.535h-111.923c-26.833 0-48.663 21.83-48.663 48.665v261.56c0 26.833 21.83 48.663 48.663 48.663l1.663-0.055c0.545-0.039 54.85-3.727 96.741-3.729 0.002 0 0.006 0 0.008 0 23.484 0 33.423 1.169 37.165 1.831 3.301 4.68 8.452 17.361 12.313 26.862 11.211 27.597 26.565 65.391 58.601 100.030 21.92 23.699 36.6 35.162 48.394 44.37 15.636 12.206 24.248 18.932 42.428 52.695 28.285 52.529 40.827 102.162 43.35 112.951 1.151 57.029 37.229 69.108 67.572 69.108 44.757 0 81.275-35.957 82.182-80.501 1.518-12.114 10.052-87.474-4.522-145.76-7.649-30.603-24.228-59.576-37.55-82.858-4.399-7.686-9.794-17.111-13.464-24.572 7.612-0.696 19.343-1.296 37.163-1.296 63.123 0 152.785 7.412 153.682 7.485l2.019 0.084c49.637 0 90.026-40.387 90.026-90.026 0-33.372-22.082-58.464-35.969-70.945 1.055-2.761 2.568-6.109 3.637-8.471 3.932-8.7 7.999-17.691 7.999-27.644 0-26.059-15.034-50.379-30.466-66.206 0.797-1.53 1.64-3.088 2.345-4.389 5.198-9.591 11.090-20.46 11.090-32.813 0-34.808-31.369-60.903-56.142-72.487 1.014-3.555 2.138-7.186 2.955-9.822 3.658-11.819 5.902-19.417 5.902-26.495 0-42.568-34.572-77.214-77.113-77.332-3.936-0.063-67.379-1.079-134.724-1.079v0zM178.711 388.571v-261.505h111.923c39.977 0 71.377-12.769 101.745-25.121 30.034-12.214 61.092-24.846 103.227-25.985 26.315-0.711 60.090-1.071 100.393-1.071 68.772 0 133.452 1.067 134.099 1.079l0.406 0.002c15.528 0 28.211 12.409 28.658 27.828-0.494 2.546-2.415 8.745-3.711 12.941-6.49 20.949-12.095 39.043-2.548 53.617 4.493 6.855 11.696 11.364 19.841 12.448 9.433 2.374 32.588 18.039 33.673 29.794-0.766 2.347-3.387 7.186-5.169 10.471-3.514 6.484-7.15 13.189-9.179 20.607-5.667 20.675 5.347 32.631 10.349 36.813 8.507 7.117 20.394 22.553 21.045 35.279-0.621 1.978-2.417 5.949-3.645 8.673-6.25 13.814-19.249 42.557 4.807 61.856 11.217 8.999 23.2 23.603 23.2 37.612 0 22.512-18.078 40.88-40.477 41.353-11.182-0.913-94.62-7.561-156.588-7.561-57.467 0-72.606 5.425-81.723 16.11-18.838 22.077-2.789 50.121 15.79 82.592 12.448 21.756 26.561 46.416 32.578 70.49 13.265 53.053 3.402 128.256 3.301 129.012l-0.215 1.61-0.002 1.638c0 18.491-15.047 33.536-33.536 33.536-7.69 0-13.369-1.264-15.198-3.381-0.877-1.016-3.74-5.456-3.74-19.894v-2.509l-0.51-2.456c-0.528-2.525-13.294-62.609-48.628-128.229-21.912-40.696-35.299-52.345-55.327-67.981-10.955-8.552-23.372-18.246-42.617-39.055-26.016-28.129-38.896-59.83-49.242-85.303-10.447-25.715-18.698-46.027-38.169-53.598-6.916-2.689-19.030-5.439-56.394-5.439-0.004 0-0.002 0-0.006 0-39.891 0-88.664 3.086-98.41 3.729v0z" />
<glyph unicode="&#xe618;" d="M430.535 841.351c40.739 0 74.959-0.367 101.71-1.090 50.971-1.378 87.771-16.345 120.244-29.553 28.414-11.557 52.951-21.535 83.413-21.535h111.923c26.833 0 48.663-21.83 48.663-48.665v-261.562c0-26.833-21.83-48.663-48.663-48.663l-1.663 0.055c-0.545 0.039-54.85 3.727-96.743 3.729-0.002 0-0.006 0-0.008 0-23.484 0-33.423-1.169-37.163-1.831-3.301-4.68-8.452-17.361-12.313-26.862-11.213-27.599-26.567-65.391-58.604-100.030-21.92-23.699-36.598-35.162-48.392-44.37-15.636-12.206-24.248-18.932-42.43-52.695-28.285-52.527-40.827-102.162-43.35-112.951-1.151-57.029-37.229-69.108-67.572-69.108-44.757 0-81.275 35.957-82.182 80.503-1.518 12.114-10.052 87.474 4.522 145.76 7.649 30.601 24.228 59.576 37.55 82.858 4.399 7.686 9.794 17.111 13.464 24.572-7.612 0.696-19.343 1.296-37.163 1.296-63.123 0-152.785-7.41-153.682-7.485l-2.019-0.084c-49.637 0-90.026 40.387-90.026 90.026 0 33.372 22.082 58.464 35.969 70.945-1.055 2.761-2.568 6.109-3.637 8.471-3.932 8.7-7.999 17.691-7.999 27.644 0 26.059 15.034 50.379 30.466 66.206-0.797 1.53-1.64 3.088-2.345 4.389-5.198 9.591-11.090 20.46-11.090 32.813 0 34.808 31.369 60.903 56.142 72.487-1.014 3.555-2.138 7.186-2.955 9.822-3.658 11.819-5.902 19.417-5.902 26.495 0 42.568 34.572 77.214 77.113 77.332 3.934 0.063 67.377 1.079 134.724 1.079v0zM847.825 479.007v261.505h-111.923c-39.979 0-71.379 12.769-101.745 25.121-30.034 12.214-61.092 24.846-103.227 25.985-26.317 0.711-60.092 1.071-100.395 1.071-68.772 0-133.452-1.067-134.099-1.079l-0.406-0.002c-15.528 0-28.211-12.409-28.658-27.828 0.494-2.546 2.415-8.745 3.711-12.941 6.49-20.949 12.095-39.043 2.548-53.617-4.493-6.855-11.696-11.364-19.841-12.448-9.433-2.374-32.588-18.039-33.673-29.794 0.766-2.347 3.387-7.186 5.169-10.471 3.514-6.484 7.15-13.189 9.179-20.607 5.667-20.675-5.347-32.631-10.349-36.813-8.507-7.117-20.394-22.553-21.045-35.279 0.621-1.978 2.417-5.949 3.645-8.673 6.25-13.814 19.249-42.557-4.807-61.856-11.217-8.999-23.2-23.603-23.2-37.612 0-22.512 18.078-40.88 40.477-41.353 11.182 0.913 94.62 7.561 156.588 7.561 57.467 0 72.606-5.425 81.723-16.11 18.838-22.077 2.789-50.121-15.79-82.592-12.448-21.756-26.561-46.414-32.578-70.49-13.265-53.053-3.402-128.258-3.301-129.012l0.215-1.61 0.002-1.638c0-18.491 15.047-33.536 33.536-33.536 7.69 0 13.369 1.264 15.198 3.381 0.877 1.016 3.74 5.456 3.74 19.894v2.509l0.51 2.454c0.528 2.525 13.294 62.609 48.628 128.229 21.912 40.696 35.299 52.345 55.329 67.981 10.955 8.552 23.37 18.244 42.617 39.053 26.016 28.129 38.896 59.83 49.244 85.303 10.447 25.715 18.696 46.027 38.169 53.598 6.916 2.689 19.032 5.439 56.394 5.439 0.004 0 0.002 0 0.006 0 39.887 0.004 88.662-3.082 98.408-3.725v0z" />
<glyph unicode="&#xe619;" d="M319.828 70.445c-10.94 0-21.228 4.26-28.963 11.995l-59.777 59.777c-7.735 7.733-11.997 18.020-11.997 28.963s4.26 21.228 11.997 28.965l182.159 182.172c-39.719 39.721-149.209 149.211-176.032 176.032l-5.38 5.38c-0.371 0.371-0.578 0.578-0.606 0.606l-0.012 0.012c-15.97 15.97-15.97 41.955 0 57.926l59.777 59.777c7.737 7.735 18.024 11.995 28.965 11.995s21.225-4.26 28.963-11.995l0.012-0.012c0.029-0.027 0.211-0.211 0.539-0.539l5.448-5.45c26.823-26.823 136.319-136.319 176.040-176.042l181.903 181.91c7.735 7.737 18.022 11.997 28.963 11.997 10.942 0 21.228-4.26 28.965-11.997l59.777-59.777c7.735-7.735 11.995-18.020 11.997-28.961 0-10.942-4.262-21.23-11.999-28.967l-181.91-181.899 182.043-182.043c7.735-7.735 11.997-18.022 11.997-28.965-0.002-10.942-4.262-21.228-11.999-28.965l-59.775-59.775c-7.733-7.735-18.020-11.995-28.963-11.997-10.942 0-21.228 4.262-28.967 11.999l-182.036 182.034-182.163-182.166c-7.739-7.729-18.026-11.991-28.965-11.991v0zM260.076 593.205c2.267-2.056 4.983-4.772 8.55-8.339l202.547-202.549-211.122-211.137 59.777-59.775c0.010 0 0.016 0 0.018 0.002l211.108 211.128 211.001-210.999 59.775 59.777-211.005 211.003 210.876 210.864-59.777 59.775-210.866-210.874-202.557 202.559c-3.568 3.568-6.281 6.283-8.339 8.548l-59.986-59.984z" />
<glyph unicode="&#xe61a;" d="M387.185 68.518c-11.573 0-22.456 4.508-30.642 12.689l-193.923 193.925c-8.184 8.18-12.691 19.065-12.691 30.642 0 11.575 4.508 22.46 12.696 30.642l60.596 60.6c8.184 8.184 19.067 12.689 30.642 12.689s22.458-4.506 30.64-12.691l102.443-102.914 390.566 390.566c8.19 8.186 19.071 12.691 30.644 12.691s22.456-4.506 30.642-12.689l60.602-60.604c8.184-8.184 12.689-19.065 12.689-30.64s-4.506-22.456-12.689-30.642l-481.575-481.573c-8.182-8.184-19.063-12.689-30.64-12.691v0zM253.862 368.749c-0.653 0-1.217-0.231-1.677-0.692l-60.6-60.604c-0.463-0.463-0.696-1.026-0.696-1.675 0-0.651 0.233-1.217 0.692-1.675l193.925-193.925c0.92-0.918 2.435-0.924 3.357-0.002l481.575 481.577c0.463 0.461 0.694 1.024 0.694 1.677s-0.231 1.217-0.692 1.677l-60.602 60.602c-0.92 0.92-2.435 0.922-3.365-0.004l-419.592-419.594-131.373 131.977c-0.43 0.428-0.993 0.662-1.645 0.662v0z" />
<glyph unicode="&#xe61b;" d="M640.002-8.958c-9.933 0-19.272 3.871-26.298 10.893l-375.734 375.732c-14.5 14.5-14.5 38.093 0 52.595l375.734 375.734c7.027 7.025 16.364 10.891 26.298 10.891s19.274-3.869 26.296-10.893l68.532-68.528c14.498-14.504 14.498-38.095 0-52.595l-280.908-280.906 280.908-280.906c14.494-14.5 14.496-38.091 0.004-52.593l-68.536-68.532c-7.021-7.021-16.359-10.893-26.296-10.893v0zM269.601 403.966l370.399-370.399 63.199 63.195-307.204 307.204 307.204 307.204-63.197 63.197-370.401-370.401z" />
<glyph unicode="&#xe61c;" d="M260.581 219.898c-8.352 0-16.566 3.5-25.111 10.703-52.038 43.866-175.084 147.659-193.751 164.018-11.020 9.658-22.768 21.277-22.63 36.968 0.139 15.958 11.731 25.764 24.003 36.147l190.865 161.499c9.409 7.961 18.282 11.831 27.128 11.831 14.289 0 28.707-10.621 28.707-34.345v-40.96h288.768c22.585 0 40.96-18.375 40.96-40.96v-188.416c0-22.585-18.375-40.96-40.96-40.96h-288.768v-37.888c0-36.581-26.221-37.638-29.211-37.638v0zM62.962 430.768c1.366-1.374 3.228-3.131 5.755-5.345 16.998-14.895 123.091-104.428 180.115-152.513v63.474h329.728v188.416h-329.728v63.363l-179.284-151.699c-1.876-1.585-4.426-3.744-6.586-5.695v0zM756.165 87.712c-4.575 0-8.464 1.11-11.596 2.562-6.384 2.961-17.097 11.035-17.097 31.818v40.962h-288.768c-22.585 0-40.96 18.375-40.96 40.96v111.89h40.96v-111.89h329.728v-63.365l179.284 151.702c1.876 1.585 4.426 3.744 6.586 5.695-1.366 1.374-3.228 3.131-5.755 5.345-16.892 14.805-123.054 104.399-180.115 152.513v-63.476h-169.392v40.96h128.432v37.888c0 22.221 9.634 31.365 17.715 35.123 6.472 3.011 19.833 5.951 36.606-8.188 64.684-54.528 175.866-148.345 193.749-164.018 11.022-9.658 22.768-21.277 22.632-36.968-0.139-15.956-11.731-25.764-24.003-36.145l-190.863-161.501c-10.619-8.983-19.773-11.866-27.144-11.866v0z" />
<glyph unicode="&#xe61d;" d="M331.866 237.654c0-39.711-32.309-72.018-72.020-72.018h-109.468c-39.715 0-72.018 32.307-72.018 72.018s32.305 72.020 72.018 72.020h109.47c39.709-0.002 72.018-32.309 72.018-72.020v0zM112.923 237.654c0-20.652 16.802-37.454 37.454-37.454h109.468c20.654 0 37.454 16.802 37.454 37.454 0 20.648-16.802 37.45-37.454 37.45h-109.468c-20.654 0-37.454-16.802-37.454-37.45v0zM326.683 437.090c0-39.711-32.309-72.018-72.018-72.018h-109.47c-39.711 0-72.020 32.307-72.020 72.018s32.307 72.020 72.020 72.020h109.468c39.711-0.002 72.020-32.309 72.020-72.020v0zM107.741 437.090c0-20.65 16.802-37.454 37.452-37.454h109.468c20.654 0 37.454 16.804 37.454 37.454 0 20.648-16.802 37.448-37.454 37.448h-109.468c-20.65 0.004-37.452-16.798-37.452-37.448v0zM937.843 799.072v-729.045c0-42.772-34.785-77.564-77.558-77.564h-582.797c-42.766 0-77.558 34.791-77.558 77.564v99.67h44.319v-99.67c0-18.33 14.911-33.243 33.239-33.243h582.795c18.328 0 33.237 14.911 33.237 33.243v729.045c0 18.328-14.909 33.239-33.237 33.239h-582.795c-18.328 0-33.239-14.911-33.239-33.239v-98.81h-44.319v98.81c0 42.764 34.791 77.558 77.558 77.558h582.795c42.762 0 77.56-34.796 77.56-77.558v0zM331.866 636.527c0-39.711-32.309-72.020-72.020-72.020h-109.468c-39.715 0-72.018 32.309-72.018 72.020s32.305 72.018 72.018 72.018h109.47c39.709-0.002 72.018-32.307 72.018-72.018v0zM112.923 636.527c0-20.652 16.802-37.456 37.454-37.456h109.468c20.654 0 37.454 16.802 37.454 37.456 0 20.648-16.802 37.45-37.454 37.45h-109.468c-20.654 0-37.454-16.802-37.454-37.45v0zM198.466 289.354v99.672h44.319v-99.672h-44.319zM196.25 488.79v99.672h44.319v-99.672h-44.319zM384.756 421.804c0 37.331 6.339 71.137 19.030 101.409 12.685 30.263 29.719 56.185 51.112 77.754 21.385 21.563 46.397 38.24 75.039 50.024 28.629 11.776 58.903 17.672 90.804 17.672 28.277 0 53.916-4.536 76.939-13.595 23.015-9.064 42.59-21.844 58.724-38.334 16.126-16.499 28.545-36.252 37.247-59.267 8.7-23.024 13.050-48.308 13.050-75.852 0-24.289-3.535-45.591-10.602-63.889-7.070-18.309-16.228-33.628-27.46-45.947-11.239-12.329-23.747-21.572-37.517-27.732-13.781-6.169-27.374-9.245-40.78-9.245-15.591 0-28.819 3.443-39.694 10.332-10.875 6.881-17.586 17.211-20.118 30.994h-1.087c-8.344-10.877-18.487-19.761-30.45-26.644-11.962-6.889-23.747-10.332-35.342-10.332-19.939 0-36.348 6.975-49.209 20.935-12.872 13.951-19.302 33.442-19.302 58.454 0 15.579 2.626 31.078 7.885 46.49 5.249 15.403 12.591 29.27 22.020 41.597 9.425 12.319 20.664 22.378 33.712 30.177 13.052 7.791 27.544 11.69 43.5 11.69 18.844 0 32.981-8.886 42.412-26.642h1.087l7.068 22.292h39.694l-23.382-114.731c-9.064-36.618 0-54.917 27.187-54.917 8.335 0 16.671 2.445 25.012 7.34 8.335 4.895 15.77 11.87 22.295 20.935 6.527 9.058 11.776 20.025 15.768 32.897 3.985 12.861 5.982 27.458 5.982 43.772 0 20.662-2.99 40.051-8.972 58.18-5.98 18.123-15.047 33.985-27.185 47.577-12.151 13.593-27.646 24.375-46.49 32.352-18.854 7.969-41.148 11.962-66.882 11.962-23.925 0-47.127-4.895-69.597-14.68-22.481-9.787-42.412-23.652-59.814-41.597-17.4-17.943-31.451-39.514-42.14-64.705-10.697-25.199-16.040-53.379-16.040-84.554 0-26.831 4.164-50.389 12.505-70.687 8.333-20.306 19.753-37.247 34.257-50.84 14.494-13.595 31.537-23.833 51.112-30.722 19.577-6.881 40.415-10.33 62.532-10.33 15.225 0 30.261 2.091 45.13 6.253 14.858 4.172 28.275 9.515 40.237 16.040l14.68-34.798c-31.902-18.123-66.879-27.187-104.942-27.187-26.831 0-52.294 4.172-76.397 12.505-24.111 8.344-45.224 20.935-63.347 37.79-18.131 16.855-32.539 37.706-43.227 62.53-10.701 24.828-16.044 53.918-16.044 87.273zM543.529 422.349c0-14.868 2.992-25.649 8.972-32.354 5.98-6.711 14.043-10.058 24.195-10.058 6.527 0 13.228 2.175 20.12 6.525 6.879 4.35 14.494 11.598 22.835 21.75l14.137 79.931c-7.979 12.683-17.945 19.030-29.907 19.030-9.431 0-17.861-2.72-25.285-8.157-7.434-5.437-13.781-12.327-19.032-20.662-5.257-8.344-9.245-17.494-11.96-27.46-2.716-9.974-4.076-19.491-4.076-28.545z" />
<glyph unicode="&#xe61e;" d="M515.353 9.728c-218.796 0-396.8 178.004-396.8 396.8s178.004 396.8 396.8 396.8 396.8-178.004 396.8-396.8-178.004-396.8-396.8-396.8v0zM515.353 778.752c-205.244 0-372.224-166.98-372.224-372.224 0-205.246 166.978-372.224 372.224-372.224 205.246 0 372.224 166.978 372.224 372.224 0 205.244-166.98 372.224-372.224 372.224v0zM341.565 446.867c-20.367 20.363-31.582 47.444-31.582 76.245 0 59.455 48.37 107.825 107.825 107.825s107.825-48.37 107.825-107.825c0-27.353-10.258-53.436-28.885-73.449l-17.863 16.628c14.41 15.483 22.344 35.662 22.344 56.824 0 45.998-37.423 83.421-83.421 83.421-45.998 0-83.421-37.421-83.421-83.421 0-22.282 8.679-43.231 24.435-58.989l-17.256-17.258zM544.842 235.897h-250.8c-32.541 0-54.741 11.176-65.982 33.221-9.204 18.047-9.202 40.174-9.198 57.956v0.944c0 23.054 16.278 59.052 30.218 82.874 15.118 25.836 37.956 56.619 61.008 56.807 1.174 0.031 6.803 0.145 28.002 0.145h0.145l17.074-0.205 3.512-3.512c15.755-15.755 36.702-24.433 58.986-24.433 22.348 0 43.342 8.72 59.109 24.558l3.576 3.59 43.67 0.002c23.081 0 47.127-31.119 63.23-57.227 15.006-24.32 32.526-60.856 32.526-83.782 0-18.704-0.807-40.163-10.416-58.102-11.67-21.793-33.425-32.838-64.662-32.838v0zM338.014 443.439c-22.718 0-27.128-0.131-27.304-0.139l-0.414-0.006c-5.405 0-21.086-12.143-40.155-44.73-15.573-26.614-26.876-56.281-26.876-70.545v-0.948c-0.002-15.958-0.006-34.044 6.531-46.866 4.356-8.544 13.685-19.905 44.245-19.905h250.8c29.098 0 38.564 11.391 43.153 19.956 6.941 12.956 7.52 30.837 7.52 46.578 0 13.988-12.151 43.833-28.889 70.967-19.419 31.48-36.522 45.638-42.463 45.638l-33.702-0.002c-19.902-18.192-45.505-28.15-72.653-28.15-27.099 0-52.673 9.931-72.563 28.066l-7.231 0.088zM574.964 454.988c-16.941 16.939-26.272 39.465-26.272 63.425 0 49.457 40.237 89.694 89.692 89.694 49.459 0 89.698-40.237 89.698-89.694 0-22.749-8.532-44.45-24.025-61.098l-17.865 16.626c11.276 12.118 17.488 27.912 17.488 44.474 0 36.002-29.293 65.29-65.296 65.29-36 0-65.288-29.29-65.288-65.29 0-17.441 6.789-33.837 19.122-46.166l-17.254-17.261zM741.333 283.341h-135.709v24.402h135.709c32.76 0 38.754 17.379 38.754 51.606 0 9.239-7.768 31.289-22.614 55.56-16.404 26.819-29.483 36.379-32.932 36.626l-26.384-0.002c-16.46-14.75-37.491-22.815-59.771-22.815-22.245 0-43.256 8.045-59.707 22.755l-4.973 0.059c-18.287 0-21.895-0.104-22.041-0.111l-0.408-0.006c-0.004 0-3.178-0.379-9.703-6.803l-17.117 17.396c9.368 9.218 18.076 13.738 26.614 13.81 1.053 0.029 5.767 0.121 22.731 0.121h0.145l14.778-0.178 3.514-3.514c12.331-12.331 28.723-19.122 46.164-19.122 17.492 0 33.921 6.826 46.266 19.223l3.576 3.59 36.352 0.002c19.771 0 39.85-25.817 53.209-47.475 12.321-19.968 26.704-50.049 26.704-69.114-0.002-22.747-0.002-76.009-63.158-76.009v0z" />
<glyph unicode="&#xe61f;" d="M588.843 32.465c-12.29 0-23.845 4.786-32.535 13.474l-428.624 428.638v290.021c0 0.799 0 1.901 0.086 3.197h-0.086c0 25.369 20.64 46.008 46.008 46.008h20.48c13.24 0 31.98 0 53.455 0h219.726l428.415-428.411c17.938-17.94 17.938-47.129 0-65.067l-274.389-274.387c-8.694-8.69-20.249-13.474-32.537-13.474v0zM168.645 491.538l416.631-416.637c1.221-1.223 2.613-1.479 3.57-1.479s2.351 0.256 3.576 1.481l274.385 274.389c1.968 1.968 1.968 5.169 0 7.137l-416.418 416.416h-275.251c-0.492 0-0.971 0.010-1.444 0.035v-0.035c-2.783 0-5.048-2.265-5.048-5.048v-0.018c0 0 0 0 0 0v-14.109c0-50.6 0-221.958 0-262.132v0zM355.074 529.844c-20.472 0-39.719 7.973-54.194 22.448-14.477 14.475-22.45 33.722-22.45 54.196 0 20.472 7.973 39.719 22.448 54.196 14.477 14.475 33.724 22.448 54.196 22.448s39.719-7.973 54.194-22.448c29.884-29.884 29.882-78.508 0-108.392-14.475-14.475-33.722-22.448-54.194-22.448v0zM355.074 642.173c-9.531 0-18.493-3.711-25.233-10.453s-10.453-15.702-10.453-25.231c0-9.531 3.711-18.493 10.453-25.231 6.74-6.74 15.702-10.453 25.233-10.453s18.493 3.711 25.233 10.453c13.912 13.912 13.912 36.551 0 50.465-6.74 6.74-15.702 10.451-25.233 10.451v0z" />
<glyph unicode="&#xe620;" d="M685.244 885.248h-334.199c-45.171 0-81.92-36.749-81.92-81.92v-724.992c0-45.171 36.749-81.92 81.92-81.92h334.199c45.171 0 81.92 36.749 81.92 81.92v724.992c0 45.171-36.751 81.92-81.92 81.92zM518.144 24.064c-25.448 0-46.078 20.632-46.078 46.080s20.63 46.080 46.078 46.080c25.45 0 46.080-20.632 46.080-46.080s-20.63-46.080-46.080-46.080zM726.204 135.68h-416.119v612.352h416.119v-612.352z" />
<glyph unicode="&#xe621;" d="M473.821 74.709c-0.002 0-0.002 0-0.004 0-4.749 0-28.447 1.677-28.447 34.748 0 17.555 28.033 185.762 41.847 267.579-66.959-26.997-210.573-84.896-222.683-89.776-10.895-4.393-48.29-13.001-85.348-13.001-43.903 0-74.002 11.713-89.463 34.812-30.077 44.931-75.608 150.264-83.343 175.895-6.363 21.078-0.106 34.021 6.265 41.165 7.455 8.36 17.353 11.563 24.58 13.904l2.175 0.711c7.078 2.359 15.448 4.876 25.256 4.876 13.361 0 26.29-4.786 38.429-14.225 17.138-13.328 69.368-56.553 86.532-70.758l3.219-2.664c0.178-0.147 0.336-0.268 0.469-0.365 0.78 0.283 2.2 0.93 4.758 2.386 4.116 2.341 73.492 33.497 549.167 243.831 26.259 11.61 43.395 19.188 47.11 20.836 26.079 11.571 60.082 15.657 61.518 15.825l1.317 0.111c0.786 0.041 19.468 1.008 36.397 1.008 11.010 0 18.6-0.391 23.884-1.235 27.795-4.428 104.1-31.39 104.1-79.061 0-16.333-13.703-30.362-54.307-55.595-24.16-15.014-57.682-33.579-99.633-55.179-58.229-29.981-117.086-57.739-136.757-66.931-25.79-55.923-151.745-328.63-166.416-352.432-19.499-31.625-58.094-47.161-69.458-51.171-0.958-0.338-1.913-0.694-2.857-1.044-5.362-1.991-11.44-4.248-18.305-4.248v0zM539.873 442.429l-6.154-36.139c-15.997-93.921-40.395-241.146-46.15-285.227 13.511 5.759 32.928 16.89 42 31.605 10.689 17.342 105.863 221.747 167.227 354.906l3.16 6.859 6.857 3.164c0.643 0.299 65.204 30.14 131.893 64.156 103.979 53.033 132.809 75.098 140.706 82.78-2.261 3.895-8.264 10.435-22.094 18.211-15.962 8.978-35.381 15.438-46.313 17.179-1.366 0.217-5.8 0.725-17.441 0.725-14.076 0-29.991-0.741-33.538-0.915-4.248-0.553-30.366-4.205-49.082-12.507-3.715-1.649-20.869-9.234-47.157-20.859-130.89-57.876-527.985-233.464-545.886-242.201-6.812-3.844-15.092-7.696-25.047-7.696-9.361 0-18.153 3.346-26.13 9.945l-3.226 2.671c-45.732 37.845-74.519 61.391-85.565 69.982-6.451 5.018-10.668 5.597-13.281 5.597-3.68 0-7.75-1.255-12.3-2.773-0.827-0.276-1.669-0.549-2.513-0.821-1.466-0.473-3.383-1.096-4.913-1.679 0.141-0.692 0.352-1.546 0.666-2.583 6.294-20.855 50.315-123.339 78.17-164.95 7.076-10.572 27.275-16.634 55.423-16.634 33.364 0 64.973 7.989 70.038 10.031 15.841 6.382 256.649 103.467 256.649 103.467l34.003 13.707zM379.863 559.315l-157.391 95.205c-13.441 8.763-14.807 19.796-14.426 25.592 0.762 11.573 9.165 19.585 16.773 23.226l1.335 0.582 47.679 18.768c7.287 2.867 18.285 4.51 30.175 4.51 10.5 0 20.74-1.339 29.614-3.875 17.758-5.073 185.035-56.762 192.145-58.962l51.747-15.991-197.652-89.055zM266.465 675.766l116.185-70.271 79.258 35.711c-52.746 16.265-128.352 39.537-139.534 42.732-5.265 1.503-11.616 2.3-18.364 2.3-8.825 0-14.242-1.323-15.21-1.677l-22.333-8.794z" />
<glyph unicode="&#xe622;" d="M587.788 67.82c-7.735-7.735-18.022-11.999-28.963-11.997l-84.537-0.002c-10.938 0-21.225 4.26-28.963 11.997s-11.997 18.022-11.997 28.965l-0.008 257.622c-56.173 0-211.016 0-248.947 0h-7.608c-0.524 0-0.817 0-0.858 0h-0.016c-22.585 0-40.96 18.375-40.96 40.958v84.537c0.002 10.942 4.264 21.228 11.999 28.965s18.020 11.997 28.961 11.997h0.018c0.039 0.002 0.299 0 0.762 0l7.705-0.002c37.933 0 192.784 0 248.959-0.002l-0.004 257.255c0 10.942 4.26 21.228 11.995 28.963 7.737 7.737 18.022 11.997 28.967 11.997h84.537c10.938 0 21.223-4.26 28.961-11.993 7.737-7.737 11.997-18.026 11.997-28.969l-0.006-257.253 257.446 0.002c10.94-0.002 21.225-4.262 28.967-11.999 7.735-7.739 11.995-18.024 11.995-28.965v-84.535c0.002-10.936-4.26-21.221-11.995-28.963-7.737-7.735-18.024-11.995-28.971-11.997h-257.436l0.002-257.62c-0.006-10.94-4.268-21.225-12.001-28.961v0zM175.89 395.217c3.058 0.147 6.898 0.147 11.942 0.147l286.448-0.002 0.010-298.58h84.537c0.006 0.006 0.010 0.012 0.010 0.016l-0.014 298.566h298.4l-0.002 84.535-298.406-0.002 0.010 298.217-84.537-0.002 0.006-298.217-286.462 0.004c-5.044-0.002-8.884 0-11.942 0.145v-84.828z" />
<glyph unicode="&#xe623;" d="M387.185 68.518c-11.573 0-22.456 4.508-30.642 12.689l-193.923 193.923c-8.184 8.18-12.691 19.065-12.691 30.644 0 11.573 4.508 22.46 12.696 30.64l60.596 60.6c8.184 8.184 19.067 12.691 30.642 12.691s22.458-4.508 30.64-12.691l102.443-102.916 390.566 390.568c8.19 8.186 19.071 12.691 30.646 12.691 11.571 0 22.456-4.506 30.642-12.689l60.602-60.604c8.184-8.184 12.689-19.065 12.689-30.64 0-11.575-4.506-22.456-12.689-30.642l-481.577-481.573c-8.182-8.184-19.063-12.689-30.64-12.691v0z" />
<glyph unicode="&#xe624;" d="M319.828 70.445c-10.94 0-21.228 4.258-28.963 11.993l-59.777 59.777c-7.735 7.733-11.997 18.022-11.997 28.965s4.26 21.228 11.997 28.965l182.159 182.172c-39.719 39.721-149.209 149.211-176.032 176.032l-5.38 5.38c-0.371 0.371-0.578 0.578-0.606 0.606l-0.012 0.012c-15.97 15.97-15.97 41.955 0 57.926l59.777 59.777c7.737 7.735 18.024 11.995 28.965 11.995s21.225-4.26 28.963-11.995l0.012-0.012c0.029-0.027 0.211-0.211 0.539-0.539l5.448-5.45c26.823-26.823 136.319-136.319 176.040-176.042l181.903 181.91c7.735 7.737 18.022 11.997 28.963 11.997 10.942 0 21.228-4.26 28.967-11.997l59.777-59.777c7.735-7.735 11.995-18.020 11.997-28.961 0-10.942-4.262-21.23-11.999-28.967l-181.91-181.899 182.045-182.043c7.733-7.735 11.995-18.022 11.995-28.967-0.002-10.942-4.262-21.228-11.997-28.965l-59.777-59.777c-7.731-7.733-18.020-11.993-28.963-11.995-10.942 0-21.228 4.262-28.969 11.999l-182.036 182.034-182.163-182.166c-7.739-7.727-18.026-11.989-28.965-11.989v0z" />
<glyph unicode="&#xe625;" d="M826.12 143.35c-0.788-0.403-1.632-0.713-2.531-0.903-1.645-0.356-41.003-8.661-103.311-7.258-57.317 1.292-145.664 11.483-241.052 52.701-77.126 33.331-131.77 95.435-158.026 179.601-14.672 47.043-16.695 88.269-16.716 107.16l-122.577 0.008c-3.815 0-7.318 2.122-9.079 5.505s-1.497 7.471 0.688 10.598l255.887 366c1.917 2.738 5.050 4.372 8.395 4.372 3.342 0 6.476-1.632 8.391-4.37l255.861-366.017c2.189-3.127 2.451-7.211 0.69-10.596s-5.27-5.507-9.083-5.509l-123.908 0.008c-0.94-11.778-1.546-34.785 3.987-62.671 10.715-54.047 38.216-99.91 81.723-136.319 106.856-89.414 168.952-113.381 169.568-113.613 4.248-1.606 6.945-5.818 6.609-10.344-0.266-3.615-2.41-6.752-5.517-8.354v0zM201.562 495.139l113.4-0.004c2.832 0 5.534-1.171 7.469-3.234 1.935-2.066 2.931-4.835 2.753-7.66-0.035-0.5-2.97-51.657 15.776-111.307 24.846-79.071 74.101-135.002 146.391-166.242 128.414-55.495 244.705-53.854 299.244-48.693-29.245 15.981-78.287 46.729-144.278 101.954-59.089 49.447-80.927 108.282-88.846 148.931-8.585 44.118-3.191 76.399-2.955 77.75 0.85 4.907 5.106 8.491 10.090 8.493l113.398-0.002-236.206 337.902-236.235-337.887z" />
<glyph unicode="&#xe626;" d="M177.215 143.35c-3.109 1.602-5.251 4.737-5.517 8.354-0.336 4.526 2.361 8.739 6.611 10.344 0.616 0.231 62.712 24.199 169.568 113.613 43.508 36.409 71.008 82.272 81.723 136.319 5.532 27.886 4.925 50.893 3.985 62.671l-123.908-0.008c-3.813 0.002-7.322 2.124-9.083 5.509s-1.499 7.467 0.69 10.596l255.861 366.017c1.915 2.738 5.050 4.37 8.391 4.37 3.346 0 6.48-1.634 8.397-4.372l255.887-366c2.183-3.127 2.447-7.215 0.688-10.598-1.761-3.383-5.263-5.505-9.081-5.505l-122.577-0.008c-0.020-18.891-2.044-60.117-16.716-107.158-26.255-84.169-80.9-146.272-158.026-179.601-95.388-41.218-183.734-51.411-241.052-52.701-62.308-1.403-101.667 6.902-103.309 7.258-0.901 0.186-1.745 0.498-2.533 0.901v0zM801.774 495.139l-236.233 337.887-236.208-337.902 113.4 0.002c4.985-0.002 9.241-3.586 10.088-8.491 0.236-1.352 5.632-33.632-2.953-77.75-7.92-40.651-29.757-99.484-88.846-148.933-65.991-55.224-115.032-85.973-144.278-101.951 54.538-5.163 170.83-6.801 299.244 48.691 72.29 31.24 121.545 87.171 146.389 166.242 18.745 59.65 15.813 110.807 15.776 111.309-0.178 2.824 0.817 5.591 2.753 7.66 1.935 2.062 4.639 3.234 7.469 3.234l113.4 0.002z" />
<glyph unicode="&#xe627;" d="M746.291 151.489h-19.984c-36.336 0-65.896 29.561-65.896 65.896v71.672h-71.672c-36.336 0-65.896 29.561-65.896 65.896v19.984c0 36.336 29.561 65.896 65.896 65.896h71.672v71.672c0 36.336 29.561 65.896 65.896 65.896h19.984c36.336 0 65.896-29.561 65.896-65.896v-71.674h71.672c36.336 0 65.896-29.561 65.896-65.896v-19.984c0-36.336-29.561-65.896-65.896-65.896h-71.672v-71.672c0-36.336-29.559-65.894-65.896-65.894v0zM588.741 399.872c-13.75 0-24.936-11.186-24.936-24.936v-19.984c0-13.75 11.186-24.936 24.936-24.936h112.632v-112.632c0-13.75 11.186-24.936 24.936-24.936h19.984c13.75 0 24.936 11.186 24.936 24.936v112.632h112.632c13.75 0 24.936 11.186 24.936 24.936v19.984c0 13.75-11.186 24.936-24.936 24.936h-112.632v112.632c0 13.75-11.186 24.936-24.936 24.936h-19.984c-13.75 0-24.936-11.186-24.936-24.936v-112.632h-112.632zM416.174 414.638c-95.75 0-173.65 77.9-173.65 173.65s77.9 173.65 173.65 173.65c95.75 0 173.65-77.9 173.65-173.65s-77.9-173.65-173.65-173.65v0zM416.174 720.978c-73.165 0-132.69-59.525-132.69-132.69s59.525-132.69 132.69-132.69c73.167 0 132.69 59.525 132.69 132.69s-59.523 132.69-132.69 132.69v0zM636.692 98.865c-0.002 0 0.002 0 0 0h-436.855c-53.541 0-120.173 0-120.173 114.852 0 49.402 18.829 116.998 47.972 172.212 20.318 38.496 62.816 103.076 119.146 103.076h73.906v-40.96h-73.906c-24.701 0-56.476-31.128-82.924-81.236-26.266-49.762-43.235-109.855-43.235-153.092 0-52.21 15.022-62.073 19.96-65.315 13.068-8.577 35.502-8.577 59.255-8.577h436.767c47.526 0 64.913 2.425 73.775 29.59l38.941-12.702c-18.87-57.844-68.684-57.848-112.63-57.848v0zM640.801 407.099c-15.854 18.68-40.231 40.946-66.337 40.946h-60.672v40.96h60.672c33.067 0 66.806-19.157 97.565-55.402l-31.228-26.503z" />
</font>
</defs>
</svg>
